<svg width="31" height="31" viewBox="0 0 31 31" fill="none" xmlns="http://www.w3.org/2000/svg">
<path d="M15.5027 0C6.93932 0 0 6.93932 0 15.5027C0 24.0607 6.93932 31 15.5027 31C24.0607 31 31 24.0607 31 15.5027C31 6.93932 24.0607 0 15.5027 0ZM15.284 7.16899C15.8144 6.04798 16.6948 5.31522 17.8487 4.89416C18.0838 4.8176 18.3189 4.77386 18.565 4.73558C18.6689 4.71371 18.6908 4.77933 18.6962 4.85588C18.7072 4.97072 18.7236 5.08555 18.7127 5.14024C18.7072 6.01517 18.4338 6.7534 17.9854 7.42053C17.4823 8.17516 16.7933 8.70559 15.9238 8.98995C15.6558 9.07197 15.3879 9.12119 15.1035 9.12119C14.9942 9.12119 14.9559 9.07744 14.945 8.96807C14.8739 8.32828 15.0161 7.7377 15.284 7.16899ZM23.0108 18.2697C22.4585 19.5493 21.7257 20.7305 20.8125 21.7804C20.4953 22.1358 20.1399 22.4585 19.7134 22.6936C19.0517 23.06 18.3681 23.0654 17.6791 22.7756C17.3948 22.6553 17.1214 22.5077 16.8315 22.4092C15.8746 22.1085 14.9395 22.1468 14.0153 22.5295C13.7747 22.628 13.5341 22.7373 13.2881 22.8303C12.3967 23.1584 11.5983 22.9561 10.8656 22.3819C10.4227 22.0265 10.0563 21.5999 9.71723 21.1461C8.9462 20.1016 8.33921 18.9697 7.92909 17.7393C7.6338 16.8589 7.44241 15.9566 7.39319 15.027C7.33851 14.0099 7.42053 13.0037 7.82519 12.0577C8.47045 10.5812 9.55865 9.57506 11.1226 9.12119C11.4234 9.02822 11.7405 8.98995 12.0303 9.00635C12.6647 8.99541 13.2279 9.15946 13.7857 9.35633C14.1302 9.47663 14.4692 9.6024 14.8192 9.68989C15.4481 9.84301 16.055 9.78832 16.662 9.55865C17.0886 9.38913 17.5151 9.21962 17.969 9.12119C19.3196 8.80949 20.5336 9.11572 21.6273 9.95237C21.928 10.1766 22.196 10.4336 22.4366 10.7234C22.535 10.8328 22.5295 10.8601 22.4038 10.9421C21.2718 11.6257 20.6102 12.6319 20.4953 13.9552C20.386 15.1856 20.7633 16.2628 21.6163 17.1651C21.9882 17.5534 22.4311 17.8487 22.9233 18.0564C23.0654 18.1111 23.0709 18.133 23.0108 18.2697Z" fill="black"/>
</svg>
