<svg width="30" height="31" viewBox="0 0 30 31" fill="none" xmlns="http://www.w3.org/2000/svg">
<path d="M15.0026 18.7564C16.7416 18.7564 18.1513 17.2997 18.1513 15.5027C18.1513 13.7058 16.7416 12.2491 15.0026 12.2491C13.2637 12.2491 11.8539 13.7058 11.8539 15.5027C11.8539 17.2997 13.2637 18.7564 15.0026 18.7564Z" fill="black"/>
<path d="M22.3637 9.74458C22.1944 9.29071 21.988 8.96261 21.6546 8.62357C21.3265 8.28454 21.009 8.07127 20.5697 7.89082C20.2364 7.75958 19.7389 7.59552 18.8181 7.55725C17.8232 7.50803 17.5216 7.50256 15.0026 7.50256C12.4837 7.50256 12.182 7.5135 11.1871 7.55725C10.2663 7.60099 9.7636 7.75958 9.4355 7.89082C8.99627 8.0658 8.67876 8.27907 8.35066 8.62357C8.02256 8.96261 7.81617 9.29071 7.64154 9.74458C7.51453 10.0891 7.35577 10.6031 7.31873 11.5546C7.2711 12.5826 7.26581 12.8943 7.26581 15.4973C7.26581 18.1002 7.27639 18.4119 7.31873 19.4399C7.36106 20.3914 7.51453 20.9109 7.64154 21.25C7.81088 21.7038 8.01726 22.0319 8.35066 22.371C8.67876 22.71 8.99627 22.9233 9.4355 23.1037C9.7689 23.235 10.2663 23.399 11.1871 23.4373C12.182 23.4865 12.4837 23.492 15.0026 23.492C17.5269 23.492 17.8232 23.481 18.8181 23.4373C19.7389 23.3935 20.2416 23.235 20.5697 23.1037C21.009 22.9287 21.3265 22.7155 21.6546 22.371C21.9827 22.0319 22.1891 21.7038 22.3637 21.25C22.4907 20.9055 22.6495 20.3914 22.6865 19.4399C22.7341 18.4119 22.7394 18.1002 22.7394 15.4973C22.7394 12.8943 22.7289 12.5826 22.6865 11.5546C22.6442 10.6031 22.4907 10.0891 22.3637 9.74458ZM15.0026 20.5117C12.3249 20.5117 10.1499 18.2697 10.1499 15.4973C10.1499 12.7248 12.3196 10.4828 15.0026 10.4828C17.6856 10.4828 19.8553 12.7248 19.8553 15.4973C19.8553 18.2697 17.6803 20.5117 15.0026 20.5117ZM20.0406 11.4616C19.4161 11.4616 18.9081 10.9367 18.9081 10.2914C18.9081 9.64615 19.4161 9.12119 20.0406 9.12119C20.665 9.12119 21.173 9.64615 21.173 10.2914C21.173 10.9367 20.6703 11.4616 20.0406 11.4616Z" fill="black"/>
<path d="M15.0026 0C6.71547 0 0 6.93932 0 15.5027C0 24.0607 6.71547 31 15.0026 31C23.2845 31 30 24.0607 30 15.5027C30 6.93932 23.2845 0 15.0026 0ZM24.3905 19.5274C24.3429 20.5664 24.1842 21.2773 23.9513 21.8952C23.7079 22.535 23.3851 23.0819 22.8612 23.6232C22.3373 24.1646 21.8081 24.4981 21.1889 24.7497C20.5856 24.9903 19.8977 25.1544 18.8975 25.2036C17.892 25.2528 17.5692 25.2637 15.0026 25.2637C12.4361 25.2637 12.1185 25.2528 11.1078 25.2036C10.1023 25.1544 9.41436 24.9903 8.81637 24.7497C8.19721 24.4981 7.66802 24.1646 7.14412 23.6232C6.62022 23.0819 6.29741 22.535 6.05398 21.8952C5.82113 21.2718 5.66237 20.5664 5.61475 19.5274C5.56712 18.4884 5.55654 18.1549 5.55654 15.5027C5.55654 12.8506 5.56712 12.5225 5.61475 11.478C5.66237 10.4391 5.82113 9.72817 6.05398 9.11025C6.29741 8.47045 6.62022 7.92362 7.14412 7.38226C7.66802 6.84089 8.19721 6.50732 8.81637 6.25578C9.41965 6.01517 10.1023 5.85112 11.1078 5.80191C12.1132 5.75269 12.4361 5.74175 15.0026 5.74175C17.5692 5.74175 17.8868 5.75269 18.8975 5.80191C19.903 5.85112 20.5909 6.01517 21.1889 6.25578C21.8081 6.50732 22.3373 6.84089 22.8612 7.38226C23.3851 7.92362 23.7079 8.47045 23.9513 9.11025C24.1842 9.73364 24.3429 10.4391 24.3905 11.478C24.4382 12.517 24.4488 12.8506 24.4488 15.5027C24.4488 18.1549 24.4329 18.483 24.3905 19.5274Z" fill="black"/>
</svg>
