<svg width="716" height="132" viewBox="0 0 716 132" fill="none" xmlns="http://www.w3.org/2000/svg">
<path d="M161.582 23.7644C165.21 27.2356 169.482 31.5079 174.382 36.5654V75.4398C172.011 78.1256 167.739 82.3979 161.739 88.2408H133.296C133.139 88.2408 132.982 88.3979 132.668 88.712V131.529C132.668 131.843 132.668 132 132.353 132H112.124C111.967 132 111.81 131.843 111.81 131.529V24.2356C111.81 23.9215 111.967 23.7644 112.124 23.7644H161.582ZM132.668 67.0523C132.825 67.3665 133.139 67.5236 133.767 67.5236H152.881C153.038 67.5236 153.352 67.3665 153.509 67.0523V45.0942C153.509 44.7801 153.352 44.7801 153.195 44.7801H133.139C132.825 44.7801 132.668 44.9372 132.668 45.0942V67.0523Z" fill="black"/>
<path d="M242.703 2.02618C242.86 2.18324 243.017 2.18324 243.017 2.49738V22.7277C243.017 22.8848 242.86 23.0419 242.703 23.0419H207.459C207.302 23.0419 207.145 23.199 207.145 23.356V45.3141C207.145 45.4712 207.302 45.6283 207.616 45.7853H226.573C226.73 45.7853 226.887 45.9424 226.887 46.0995V66.1728C226.887 66.3298 226.73 66.4869 226.573 66.4869H207.616C207.459 66.4869 207.302 66.644 207.145 66.9581V88.9162C207.145 89.0733 207.302 89.2304 207.459 89.2304H242.703C242.86 89.2304 243.017 89.3874 243.017 89.5445V109.775C243.017 110.089 242.86 110.246 242.703 110.246H186.602C186.288 110.246 186.288 110.089 186.288 109.775V2.51309C186.288 2.19895 186.445 2.04188 186.602 2.04188H242.703V2.02618Z" fill="black"/>
<path d="M276.031 18.7382C276.345 18.8953 276.345 18.8953 276.345 19.2094V62.0262C276.502 62.3403 276.816 62.4974 277.445 62.4974H296.244C297.03 62.4974 297.36 62.1832 297.36 61.3979V19.2094C297.36 18.8953 297.517 18.7382 297.674 18.7382H317.746C317.903 18.8953 318.06 18.8953 318.06 19.2094V126.503C318.06 126.817 317.903 126.974 317.746 126.974H297.674C297.36 126.974 297.36 126.817 297.36 126.503V84.3141C297.36 83.5288 297.045 83.2147 296.244 83.2147H276.973C276.816 83.2147 276.659 83.3717 276.345 83.6859V126.503C276.345 126.817 276.345 126.974 276.031 126.974H255.959C255.802 126.974 255.645 126.817 255.645 126.503V19.2094C255.645 18.8953 255.802 18.7382 255.959 18.7382H276.031Z" fill="black"/>
<path d="M407.301 89.1832H397.359V14.2932C392.773 9.70681 388.516 5.45026 384.716 1.80628H347.728C342.985 6.2356 338.886 10.4921 335.085 14.2932V89.1675H325.143C324.986 89.1675 324.829 89.3246 324.829 89.4817V109.555C326.415 117.298 327.515 121.084 327.986 121.084H342.844C344.587 114.974 345.514 111.314 345.655 110.026H386.852C388.375 117.44 389.443 121.084 389.914 121.084H404.772C406.673 114.44 407.615 110.654 407.615 109.712V89.4974C407.615 89.3403 407.458 89.1832 407.301 89.1832ZM376.36 88.8691C376.36 89.0262 376.203 89.1832 376.046 89.1832H356.429C356.272 89.1832 356.115 89.0262 356.115 88.8691V22.6806L356.901 22.5236H375.559L376.344 22.6806V88.8691H376.36Z" fill="black"/>
<path d="M84.4191 9.36126H59.0384V0.549738C59.0384 0.172775 58.8814 0 58.7243 0H47.526H40.6625H38.3538C38.1967 0 38.0397 0.188482 38.0397 0.549738V9.36126H12.8003C7.743 14.2618 3.471 18.534 0 22.1623V104.812C4.90024 109.869 9.15653 114.141 12.8003 117.613H38.024V126.424C38.024 126.801 38.024 126.974 38.3381 126.974H43.8351H47.526H58.7243C59.0384 126.974 59.0384 126.785 59.0384 126.424V117.613H84.4191C89.4764 112.555 93.7484 108.456 97.2194 104.812V22.1623C92.3192 17.1047 88.0472 12.8482 84.4191 9.36126ZM37.7098 96.5969H21.0145L20.8574 95.8115V30.6911C20.8574 30.534 21.0145 30.377 21.1715 30.377H37.7098C38.024 30.377 38.024 30.377 38.024 30.6911V96.2827C38.024 96.4398 38.024 96.5969 37.7098 96.5969ZM76.205 96.2827C76.205 96.4398 76.205 96.5969 75.8908 96.5969H59.1955L59.0384 95.8115V30.6911C59.0384 30.534 59.1955 30.377 59.3526 30.377H75.8908C76.205 30.377 76.205 30.377 76.205 30.6911V96.2827Z" fill="black"/>
<path d="M468.821 21.3455C472.606 25.1309 476.878 29.2461 481.464 33.9895V66.2199L472.622 75.2199V75.6911L481.464 84.6911V116.921C477.679 120.707 473.564 124.979 468.821 129.565H431.692C428.221 126.094 423.949 121.822 419.049 116.764V94.9791C419.049 94.822 419.206 94.6649 419.363 94.6649H439.435C439.592 94.6649 439.749 94.822 439.749 94.9791V107.623C439.749 108.251 440.063 108.565 440.22 108.565H460.45L460.607 107.78V86.2775C460.607 86.1204 460.45 85.9634 460.135 85.8063H441.335C441.021 85.8063 441.021 85.6492 441.021 85.4921V65.4189C441.021 65.2618 441.178 65.1047 441.335 65.1047H460.135C460.292 65.1047 460.45 64.9476 460.607 64.6335V43.1466L460.45 42.3613H440.22C439.906 42.3613 439.749 42.8325 439.749 43.3037V55.9476C439.749 56.1047 439.592 56.2618 439.435 56.2618H419.363C419.206 56.2618 419.049 56.1047 419.049 55.9476V34.1309C422.52 30.5026 426.635 26.2304 431.692 21.3298H468.821V21.3455Z" fill="white"/>
<path d="M546.188 0.267017C549.816 3.73822 554.088 8.01047 558.988 13.0681V95.7173C555.517 99.3456 551.245 103.461 546.188 108.518H509.216C505.588 105.047 501.316 100.775 496.416 95.7173V13.0681C499.887 9.43979 504.159 5.16754 509.216 0.267017H546.188ZM517.273 86.7016L517.431 87.4869H537.66C537.974 87.4869 537.974 87.3299 537.974 87.1728V21.5969C537.974 21.2827 537.974 21.2827 537.66 21.2827H517.588C517.43 21.2827 517.273 21.4398 517.273 21.5969V86.7016Z" fill="white"/>
<path d="M594.986 10.8691C595.3 11.0262 595.3 11.0262 595.3 11.3403V54.1571C595.457 54.4712 595.771 54.6283 596.4 54.6283H615.2C615.985 54.6283 616.315 54.3141 616.315 53.5288V11.3403C616.315 11.0262 616.472 10.8691 616.629 10.8691H636.701C636.858 11.0262 637.015 11.0262 637.015 11.3403V118.634C637.015 118.948 636.858 119.105 636.701 119.105H616.629C616.315 119.105 616.315 118.948 616.315 118.634V76.445C616.315 75.6597 616.001 75.3456 615.2 75.3456H595.928C595.771 75.3456 595.614 75.5026 595.3 75.8167V118.634C595.3 118.948 595.3 119.105 594.986 119.105H574.914C574.757 119.105 574.6 118.948 574.6 118.634V11.3403C574.6 11.0262 574.757 10.8691 574.914 10.8691H594.986Z" fill="white"/>
<path d="M691.515 14.1047C691.829 14.1047 692.944 18.534 694.671 27.377C695.614 31.0052 702.729 62.623 716 122.34L715.686 122.654H694.828C694.514 122.34 693.572 118.869 692.143 112.068L691.829 111.911H669.715C669.244 111.911 668.443 114.754 667.5 120.44C667.029 121.869 666.872 122.654 666.558 122.654H645.7C645.543 122.654 645.386 122.497 645.386 122.183C658.658 63.2356 666.715 27.2199 669.715 14.2618L670.029 14.1047H691.515ZM686.771 90.911C687.085 90.911 687.243 90.7539 687.243 90.4398C683.614 74.0105 681.557 65.1518 681.086 63.5812H680.615C680.301 63.5812 679.185 67.8534 677.458 76.2251C675.4 85.0681 674.301 89.9686 674.301 90.9267H686.771V90.911Z" fill="white"/>
</svg>
