<svg width="52" height="40" viewBox="0 0 52 40" fill="none" xmlns="http://www.w3.org/2000/svg">
<path d="M33.055 39.4607C31.793 39.4607 27.8854 39.4812 26.742 39.4812C26.5893 39.484 26.4382 39.4519 26.3008 39.3877C26.1634 39.3235 26.0437 39.2289 25.9513 39.1116C24.0812 36.818 19.1549 30.7907 19.1549 30.7907L25.3766 22.8363L17.2543 12.4474C17.2543 12.4474 9.60632 30.9578 6.34643 38.9416C6.30928 39.0959 6.21156 39.2304 6.07378 39.3168C5.936 39.4032 5.76888 39.4348 5.60748 39.405H0L15.5057 0.688965C15.5057 0.688965 27.0613 15.4979 32.1305 22.0238C32.611 22.6427 32.608 22.6544 32.1123 23.2997C30.6161 25.2473 26.9761 30.0457 26.6386 30.4915C26.5558 30.5759 26.5097 30.6877 26.5097 30.8038C26.5097 30.92 26.5558 31.0317 26.6386 31.1162C27.5995 32.2718 32.9759 39.3434 33.055 39.4607Z" fill="white"/>
<path d="M51.7446 39.5984H45.906C45.6353 39.5984 45.5106 39.4606 45.4133 39.2201C41.676 30.1805 34.3869 11.6497 34.3869 11.6497L31.4311 15.7559C31.048 15.2984 30.7226 14.9112 30.4002 14.5211C29.5549 13.4887 28.7156 12.4504 27.8641 11.4238C27.8255 11.3898 27.7946 11.3483 27.7735 11.3021C27.7524 11.2559 27.7415 11.2059 27.7415 11.1554C27.7415 11.105 27.7524 11.0551 27.7735 11.0088C27.7946 10.9626 27.8255 10.9212 27.8641 10.887C30.5888 7.52291 36.2023 0.688965 36.2023 0.688965L51.7446 39.5984Z" fill="white"/>
</svg>
