<svg width="30" height="31" viewBox="0 0 30 31" fill="none" xmlns="http://www.w3.org/2000/svg">
<path d="M15.0026 0C6.71547 0 0 6.93932 0 15.5027C0 24.0607 6.71547 31 15.0026 31C23.2845 31 30 24.0607 30 15.5027C30 6.93932 23.2845 0 15.0026 0ZM21.8822 22.36C21.6123 22.8194 21.0355 22.9615 20.5962 22.6827C17.0718 20.457 12.6424 19.954 7.4193 21.1898C6.91656 21.3101 6.41383 20.982 6.29741 20.4625C6.18098 19.943 6.4985 19.4235 7.00123 19.3032C12.7165 17.9525 17.6169 18.5322 21.5699 21.0312C22.0092 21.3046 22.1521 21.9007 21.8822 22.36ZM23.7185 18.1385C23.3798 18.7072 22.6601 18.8876 22.1097 18.5377C18.0773 15.9785 11.9333 15.2348 7.15999 16.7331C6.54084 16.9245 5.88993 16.5636 5.69942 15.9293C5.5142 15.2895 5.86347 14.6169 6.47733 14.42C11.928 12.7139 18.6964 13.5396 23.3269 16.4816C23.8825 16.8261 24.0519 17.5698 23.7185 18.1385ZM23.8719 13.7419C19.0351 10.7726 11.0602 10.4992 6.44558 11.9483C5.70471 12.178 4.9215 11.746 4.69395 10.9804C4.47169 10.2149 4.88975 9.40554 5.63062 9.1704C10.9279 7.50803 19.7389 7.83066 25.3061 11.2429C25.9728 11.653 26.1898 12.5444 25.7982 13.2279C25.4013 13.9224 24.5387 14.1521 23.8719 13.7419Z" fill="black"/>
</svg>
