<svg width="47" height="28" viewBox="0 0 47 28" fill="none" xmlns="http://www.w3.org/2000/svg">
<path d="M42.512 19.7648C41.3076 18.3515 39.5139 16.8227 38.9629 16.0518C38.207 15.0754 38.4248 14.6386 38.9629 13.7521C38.9629 13.7521 45.2282 4.90021 45.8817 1.90675C46.2148 0.814712 45.8817 0.00532053 44.3314 0.00532053H39.2064C38.7262 -0.0281418 38.2484 0.0969124 37.8458 0.361383C37.4433 0.625853 37.1381 1.0152 36.977 1.46993C35.3826 5.26811 33.2509 8.8162 30.6476 12.0049C29.4176 13.2125 28.8795 13.5594 28.226 13.5594C27.9057 13.5594 27.4316 13.174 27.4316 12.082V1.90675C27.4316 0.621999 27.0473 0.00532053 25.9582 0.00532053H17.8863C17.5635 0.0042833 17.2523 0.125441 17.0147 0.344575C16.7772 0.563709 16.6309 0.86467 16.605 1.18729C16.605 2.47204 18.4629 2.71614 18.6551 6.22351V13.8164C18.6551 15.4737 18.3475 15.782 17.6941 15.782C15.9516 15.782 11.7107 9.35829 9.1994 2.00953C8.69971 0.583457 8.21283 0.00532053 6.89314 0.00532053H1.76813C0.294688 0.00532053 0 0.699084 0 1.46993C0 2.83177 1.7425 9.60239 8.12315 18.5699C12.3641 24.6853 18.3732 28 23.8057 28C27.0729 28 27.4829 27.2677 27.4829 25.9958V21.3707C27.4829 19.8932 27.7904 19.6106 28.8282 19.6106C29.5841 19.6106 30.891 19.9832 33.9532 22.9381C37.4382 26.4326 38.0148 28 39.9751 28H45.1001C46.5736 28 47.3039 27.2677 46.8811 25.8159C46.4583 24.3642 44.7157 22.2572 42.512 19.7648Z" fill="black"/>
</svg>
