<svg width="63" height="36" viewBox="0 0 63 36" fill="none" xmlns="http://www.w3.org/2000/svg">
<g filter="url(#filter0_d_51_2589)">
<path d="M38.154 13.9936C38.1548 12.8372 38.6094 11.7284 39.4177 10.911C40.2261 10.0935 41.3221 9.63437 42.4648 9.63437V9.0408C42.3177 9.04884 42.1704 9.02645 42.0321 8.97499C41.8938 8.92353 41.7672 8.84409 41.6603 8.74151C41.5533 8.63893 41.4681 8.51536 41.4098 8.37835C41.3516 8.24134 41.3216 8.09375 41.3216 7.94461C41.3216 7.79546 41.3516 7.64788 41.4098 7.51087C41.4681 7.37386 41.5533 7.25029 41.6603 7.14771C41.7672 7.04513 41.8938 6.96569 42.0321 6.91423C42.1704 6.86277 42.3177 6.84038 42.4648 6.84842V6.0155C42.3177 6.02354 42.1704 6.00115 42.0321 5.94969C41.8938 5.89823 41.7672 5.81879 41.6603 5.71621C41.5533 5.61362 41.4681 5.49006 41.4098 5.35305C41.3516 5.21604 41.3216 5.06845 41.3216 4.91931C41.3216 4.77016 41.3516 4.62258 41.4098 4.48557C41.4681 4.34856 41.5533 4.22499 41.6603 4.12241C41.7672 4.01983 41.8938 3.94038 42.0321 3.88893C42.1704 3.83747 42.3177 3.81508 42.4648 3.82311V2.99977C42.3177 3.00781 42.1704 2.98542 42.0321 2.93396C41.8938 2.8825 41.7672 2.80306 41.6603 2.70048C41.5533 2.5979 41.4681 2.47433 41.4098 2.33732C41.3516 2.20031 41.3216 2.05273 41.3216 1.90358C41.3216 1.75443 41.3516 1.60685 41.4098 1.46984C41.4681 1.33283 41.5533 1.20926 41.6603 1.10668C41.7672 1.0041 41.8938 0.924656 42.0321 0.873198C42.1704 0.82174 42.3177 0.799347 42.4648 0.807385V0H4.46484V0.797812C4.61201 0.789773 4.75926 0.812166 4.89759 0.863624C5.03593 0.915082 5.16244 0.994526 5.26943 1.09711C5.37642 1.19969 5.46163 1.32325 5.51986 1.46027C5.57809 1.59728 5.60812 1.74486 5.60812 1.894C5.60812 2.04315 5.57809 2.19073 5.51986 2.32774C5.46163 2.46476 5.37642 2.58832 5.26943 2.6909C5.16244 2.79348 5.03593 2.87293 4.89759 2.92439C4.75926 2.97584 4.61201 2.99824 4.46484 2.9902V3.82311C4.61201 3.81508 4.75926 3.83747 4.89759 3.88893C5.03593 3.94038 5.16244 4.01983 5.26943 4.12241C5.37642 4.22499 5.46163 4.34856 5.51986 4.48557C5.57809 4.62258 5.60812 4.77016 5.60812 4.91931C5.60812 5.06845 5.57809 5.21604 5.51986 5.35305C5.46163 5.49006 5.37642 5.61362 5.26943 5.71621C5.16244 5.81879 5.03593 5.89823 4.89759 5.94969C4.75926 6.00115 4.61201 6.02354 4.46484 6.0155V6.84842C4.61201 6.84038 4.75926 6.86277 4.89759 6.91423C5.03593 6.96569 5.16244 7.04513 5.26943 7.14771C5.37642 7.25029 5.46163 7.37386 5.51986 7.51087C5.57809 7.64788 5.60812 7.79546 5.60812 7.94461C5.60812 8.09375 5.57809 8.24134 5.51986 8.37835C5.46163 8.51536 5.37642 8.63893 5.26943 8.74151C5.16244 8.84409 5.03593 8.92353 4.89759 8.97499C4.75926 9.02645 4.61201 9.04884 4.46484 9.0408V9.63437C5.04056 9.61861 5.61355 9.71975 6.15 9.93182C6.68645 10.1439 7.17546 10.4626 7.58817 10.8691C8.00088 11.2756 8.32892 11.7616 8.55291 12.2986C8.7769 12.8355 8.8923 13.4124 8.8923 13.9952C8.8923 14.578 8.7769 15.1549 8.55291 15.6919C8.32892 16.2288 8.00088 16.7149 7.58817 17.1214C7.17546 17.5279 6.68645 17.8465 6.15 18.0586C5.61355 18.2707 5.04056 18.3718 4.46484 18.3561V18.956C4.75255 18.956 5.02848 19.0717 5.23192 19.2775C5.43537 19.4834 5.54966 19.7626 5.54966 20.0538C5.54966 20.3449 5.43537 20.6242 5.23192 20.83C5.02848 21.0359 4.75255 21.1516 4.46484 21.1516V21.9813C4.75255 21.9813 5.02848 22.097 5.23192 22.3028C5.43537 22.5087 5.54966 22.7879 5.54966 23.0791C5.54966 23.3703 5.43537 23.6495 5.23192 23.8554C5.02848 24.0612 4.75255 24.1769 4.46484 24.1769V25.0066C4.6073 25.0066 4.74837 25.035 4.87999 25.0902C5.0116 25.1453 5.13119 25.2262 5.23192 25.3281C5.33266 25.4301 5.41256 25.5511 5.46708 25.6843C5.5216 25.8175 5.54966 25.9602 5.54966 26.1044C5.54966 26.2486 5.5216 26.3913 5.46708 26.5245C5.41256 26.6577 5.33266 26.7787 5.23192 26.8807C5.13119 26.9826 5.0116 27.0635 4.87999 27.1186C4.74837 27.1738 4.6073 27.2022 4.46484 27.2022V28H42.4648V27.2022C42.1771 27.2022 41.9012 27.0865 41.6978 26.8807C41.4943 26.6748 41.38 26.3956 41.38 26.1044C41.38 25.8132 41.4943 25.534 41.6978 25.3281C41.9012 25.1223 42.1771 25.0066 42.4648 25.0066V24.1769C42.1771 24.1769 41.9012 24.0612 41.6978 23.8554C41.4943 23.6495 41.38 23.3703 41.38 23.0791C41.38 22.7879 41.4943 22.5087 41.6978 22.3028C41.9012 22.097 42.1771 21.9813 42.4648 21.9813V21.1516C42.1771 21.1516 41.9012 21.0359 41.6978 20.83C41.4943 20.6242 41.38 20.3449 41.38 20.0538C41.38 19.7626 41.4943 19.4834 41.6978 19.2775C41.9012 19.0717 42.1771 18.956 42.4648 18.956V18.3561C41.3215 18.3561 40.225 17.8964 39.4166 17.0783C38.6082 16.2602 38.154 15.1506 38.154 13.9936Z" fill="#D81F27"/>
<path d="M58.4648 0.797812V0H42.4648V0.797812C42.7461 0.812952 43.0109 0.935044 43.2046 1.13896C43.3983 1.34287 43.5063 1.6131 43.5063 1.894C43.5063 2.17491 43.3983 2.44514 43.2046 2.64905C43.0109 2.85297 42.7461 2.97506 42.4648 2.9902V3.82311C42.7461 3.83825 43.0109 3.96035 43.2046 4.16426C43.3983 4.36818 43.5063 4.6384 43.5063 4.91931C43.5063 5.20022 43.3983 5.47044 43.2046 5.67435C43.0109 5.87827 42.7461 6.00036 42.4648 6.0155V6.84842C42.7461 6.86356 43.0109 6.98565 43.2046 7.18956C43.3983 7.39348 43.5063 7.6637 43.5063 7.94461C43.5063 8.22552 43.3983 8.49574 43.2046 8.69965C43.0109 8.90357 42.7461 9.02566 42.4648 9.0408V9.63437C43.6041 9.66511 44.6864 10.138 45.4813 10.9525C46.2762 11.767 46.7209 12.8587 46.7209 13.9952C46.7209 15.1318 46.2762 16.2235 45.4813 17.0379C44.6864 17.8524 43.6041 18.3253 42.4648 18.3561V18.956C42.7568 18.956 43.0368 19.0717 43.2432 19.2775C43.4497 19.4834 43.5656 19.7626 43.5656 20.0538C43.5656 20.3449 43.4497 20.6242 43.2432 20.83C43.0368 21.0359 42.7568 21.1516 42.4648 21.1516V21.9813C42.7568 21.9813 43.0368 22.097 43.2432 22.3028C43.4497 22.5087 43.5656 22.7879 43.5656 23.0791C43.5656 23.3703 43.4497 23.6495 43.2432 23.8554C43.0368 24.0612 42.7568 24.1769 42.4648 24.1769V25.0066C42.7568 25.0066 43.0368 25.1223 43.2432 25.3281C43.4497 25.534 43.5656 25.8132 43.5656 26.1044C43.5656 26.3956 43.4497 26.6748 43.2432 26.8807C43.0368 27.0865 42.7568 27.2022 42.4648 27.2022V28H58.4648V27.2022C58.1729 27.2022 57.8929 27.0865 57.6865 26.8807C57.48 26.6748 57.364 26.3956 57.364 26.1044C57.364 25.8132 57.48 25.534 57.6865 25.3281C57.8929 25.1223 58.1729 25.0066 58.4648 25.0066V24.1769C58.1729 24.1769 57.8929 24.0612 57.6865 23.8554C57.48 23.6495 57.364 23.3703 57.364 23.0791C57.364 22.7879 57.48 22.5087 57.6865 22.3028C57.8929 22.097 58.1729 21.9813 58.4648 21.9813V21.1516C58.1729 21.1516 57.8929 21.0359 57.6865 20.83C57.48 20.6242 57.364 20.3449 57.364 20.0538C57.364 19.7626 57.48 19.4834 57.6865 19.2775C57.8929 19.0717 58.1729 18.956 58.4648 18.956V18.3561C57.8806 18.3718 57.2992 18.2707 56.7549 18.0586C56.2105 17.8465 55.7143 17.5279 55.2955 17.1214C54.8767 16.7149 54.5438 16.2288 54.3165 15.6919C54.0892 15.1549 53.9721 14.578 53.9721 13.9952C53.9721 13.4124 54.0892 12.8355 54.3165 12.2986C54.5438 11.7616 54.8767 11.2756 55.2955 10.8691C55.7143 10.4626 56.2105 10.1439 56.7549 9.93182C57.2992 9.71975 57.8806 9.61861 58.4648 9.63437V9.0408C58.3155 9.04884 58.1661 9.02645 58.0257 8.97499C57.8854 8.92353 57.757 8.84409 57.6484 8.74151C57.5398 8.63893 57.4534 8.51536 57.3943 8.37835C57.3352 8.24134 57.3047 8.09375 57.3047 7.94461C57.3047 7.79546 57.3352 7.64788 57.3943 7.51087C57.4534 7.37386 57.5398 7.25029 57.6484 7.14771C57.757 7.04513 57.8854 6.96569 58.0257 6.91423C58.1661 6.86277 58.3155 6.84038 58.4648 6.84842V6.0155C58.3155 6.02354 58.1661 6.00115 58.0257 5.94969C57.8854 5.89823 57.757 5.81879 57.6484 5.71621C57.5398 5.61362 57.4534 5.49006 57.3943 5.35305C57.3352 5.21604 57.3047 5.06845 57.3047 4.91931C57.3047 4.77016 57.3352 4.62258 57.3943 4.48557C57.4534 4.34856 57.5398 4.22499 57.6484 4.12241C57.757 4.01983 57.8854 3.94038 58.0257 3.88893C58.1661 3.83747 58.3155 3.81508 58.4648 3.82311V2.99977C58.3155 3.00781 58.1661 2.98542 58.0257 2.93396C57.8854 2.8825 57.757 2.80306 57.6484 2.70048C57.5398 2.5979 57.4534 2.47433 57.3943 2.33732C57.3352 2.20031 57.3047 2.05273 57.3047 1.90358C57.3047 1.75443 57.3352 1.60685 57.3943 1.46984C57.4534 1.33283 57.5398 1.20926 57.6484 1.10668C57.757 1.0041 57.8854 0.924656 58.0257 0.873198C58.1661 0.82174 58.3155 0.799347 58.4648 0.807385V0.797812Z" fill="#D81F27"/>
</g>
<defs>
<filter id="filter0_d_51_2589" x="0.464844" y="0" width="62" height="36" filterUnits="userSpaceOnUse" color-interpolation-filters="sRGB">
<feFlood flood-opacity="0" result="BackgroundImageFix"/>
<feColorMatrix in="SourceAlpha" type="matrix" values="0 0 0 0 0 0 0 0 0 0 0 0 0 0 0 0 0 0 127 0" result="hardAlpha"/>
<feOffset dy="4"/>
<feGaussianBlur stdDeviation="2"/>
<feComposite in2="hardAlpha" operator="out"/>
<feColorMatrix type="matrix" values="0 0 0 0 0 0 0 0 0 0 0 0 0 0 0 0 0 0 0.25 0"/>
<feBlend mode="normal" in2="BackgroundImageFix" result="effect1_dropShadow_51_2589"/>
<feBlend mode="normal" in="SourceGraphic" in2="effect1_dropShadow_51_2589" result="shape"/>
</filter>
</defs>
</svg>
