<svg width="30" height="31" viewBox="0 0 30 31" fill="none" xmlns="http://www.w3.org/2000/svg">
<path d="M15.0026 0C6.71547 0 0 6.93932 0 15.5027C0 24.0607 6.71547 31 15.0026 31C23.2845 31 30 24.0607 30 15.5027C30 6.93932 23.2845 0 15.0026 0ZM23.9249 21.4578H21.8028C20.9931 21.4578 20.755 20.7906 19.3156 19.3032C18.0508 18.0455 17.511 17.8869 17.1988 17.8869C16.7702 17.8869 16.6431 18.0072 16.6431 18.6361V20.6047C16.6431 21.1461 16.4738 21.4578 15.1244 21.4578C12.8753 21.4578 10.3987 20.0469 8.64703 17.444C6.01164 13.6271 5.29194 10.7453 5.29194 10.1656C5.29194 9.83754 5.41365 9.54225 6.02223 9.54225H8.14429C8.68936 9.54225 8.89046 9.78832 9.09684 10.3953C10.1341 13.5232 11.8857 16.2574 12.6054 16.2574C12.8753 16.2574 13.0023 16.1261 13.0023 15.4207V12.1889C12.9229 10.6961 12.1556 10.5758 12.1556 10.0453C12.1556 9.79926 12.3567 9.54225 12.6954 9.54225H16.0346C16.4844 9.54225 16.6431 9.78832 16.6431 10.3516V14.6989C16.6431 15.1637 16.8389 15.3277 16.9712 15.3277C17.2411 15.3277 17.4687 15.1637 17.9608 14.6497C19.4955 12.8834 20.5751 10.1656 20.5751 10.1656C20.7074 9.83754 20.9561 9.54225 21.4959 9.54225H23.6232C24.2635 9.54225 24.4011 9.88675 24.2635 10.3516C23.9937 11.6257 21.4059 15.3934 21.4059 15.3934C21.1836 15.7707 21.0937 15.9566 21.4059 16.3722C21.6334 16.7003 22.3743 17.351 22.8718 17.9526C23.782 19.0134 24.4699 19.9102 24.6604 20.5281C24.8351 21.1461 24.5334 21.4578 23.9249 21.4578Z" fill="black"/>
</svg>
