<svg width="30" height="31" viewBox="0 0 30 31" fill="none" xmlns="http://www.w3.org/2000/svg">
<path d="M13.0023 12.4022L18.199 15.5027L13.0023 18.6033V12.4022Z" fill="black"/>
<path d="M15.0026 0C6.71547 0 0 6.93932 0 15.5027C0 24.0607 6.71547 31 15.0026 31C23.2845 31 30 24.0607 30 15.5027C30 6.93932 23.2845 0 15.0026 0ZM24.5811 20.4735C24.3535 21.3648 23.6761 22.0647 22.8135 22.3053C21.2577 22.7319 15.0026 22.7319 15.0026 22.7319C15.0026 22.7319 8.74757 22.7319 7.18645 22.3053C6.32387 22.0647 5.6465 21.3648 5.41895 20.4735C5.00088 18.8658 5.00088 15.5027 5.00088 15.5027C5.00088 15.5027 5.00088 12.1397 5.41895 10.5265C5.6465 9.63521 6.32387 8.93526 7.18645 8.70012C8.74757 8.26813 15.0026 8.26813 15.0026 8.26813C15.0026 8.26813 21.2577 8.26813 22.8135 8.70012C23.6761 8.93526 24.3535 9.63521 24.5811 10.5265C24.9991 12.1397 24.9991 15.5027 24.9991 15.5027C24.9991 15.5027 24.9991 18.8658 24.5811 20.4735Z" fill="black"/>
</svg>
